<svg viewBox="0 0 1622 626" xmlns="http://www.w3.org/2000/svg" fill-rule="evenodd" clip-rule="evenodd" stroke-linejoin="round" stroke-miterlimit="1.414">
  <g opacity=".2" fill="#fff" fill-rule="nonzero">
    <path d="M1443.5 139.852l-14.655 4.794 12.857 11.884-5.149 22.119-22.47 6.425-16.99-15.617 3.992-17.145-11.3-9.594-7.31 31.4 27.574 26.186 37.466-11.044 8.732-37.51-12.747-11.898zM1438.27 135.375l-10.756-10.091-14.845 5.008 10.994 9.866 14.607-4.783z"/>
  </g>
  <g opacity=".2" fill="#fff" fill-rule="nonzero">
    <path d="M1327.3 486l-4.609-1.076 1.481 5.166-4.873 4.984-6.919-1.893-1.972-6.803 3.778-3.863-1.437-4.317-6.919 7.075 3.066 11.262 11.589 3.069 8.265-8.452-1.45-5.152zM1326.63 483.993l-1.215-4.361-4.693-1.05 1.314 4.339 4.594 1.072z"/>
  </g>
  <g opacity=".2" fill="#fff" fill-rule="nonzero">
    <path d="M68.654 308.075l6.769-6.547-10.237-3.093-3.08-13.525 10.626-9.531 13.503 4.04 2.388 10.483 8.769 2.251-4.373-19.2-22.14-7.016-17.628 16.073 5.223 22.935 10.18 3.13zM72.722 309.137l8.604 2.67 6.816-6.716-8.674-2.482-6.746 6.528z"/>
  </g>
  <g opacity=".2" fill-rule="nonzero">
    <path d="M1546.28 249.753l-1.39-13.443 12.338 5.516 18.229-13.198-53.429-23.892 6.024 58.216 18.228-13.199z" fill="#fff"/>
    <path d="M1546.28 249.753l-1.39-13.443 12.338 5.516 8.749-6.334-32.058-14.334 3.613 34.93 8.748-6.335z" fill="#35495e"/>
  </g>
  <g opacity=".2" fill-rule="nonzero">
    <path d="M215.072 531.597l1.744 4.458-4.733-.717-4.975 6.227 20.495 3.109-7.555-19.304-4.976 6.227z" fill="#fff"/>
    <path d="M215.072 531.597l1.744 4.458-4.733-.717-2.388 2.988 12.298 1.865-4.533-11.582-2.388 2.988z" fill="#35495e"/>
  </g>
  <g opacity=".2" fill-rule="nonzero">
    <path d="M201.849 101.032l-5.846 15.201-10.244-12.662-26.789 4.227 44.356 54.838 25.312-65.832-26.789 4.228z" fill="#fff"/>
    <path d="M201.849 101.032l-5.846 15.201-10.244-12.662-12.857 2.029 26.615 32.901 15.189-39.498-12.857 2.029z" fill="#35495e"/>
  </g>
</svg>
